<?xml version="1.0" encoding="utf-8"?>
<!-- Generator: Adobe Illustrator 23.0.6, SVG Export Plug-In . SVG Version: 6.00 Build 0)  -->
<svg version="1.1" id="Capa_1" xmlns="http://www.w3.org/2000/svg" xmlns:xlink="http://www.w3.org/1999/xlink" x="0px" y="0px"
	 viewBox="0 0 32 32" style="enable-background:new 0 0 32 32;" xml:space="preserve">
<style type="text/css">
	.st0{fill:#8C84A5;}
	.st1{fill:#9F9AB5;}
	.st2{fill:#CDCADB;}
	.st3{fill:#B3B0C1;}
	.st4{fill:#BFBCCC;}
	.st5{fill:#736C93;}
	.st6{fill:#D6D5E0;}
</style>
<rect x="13.72" y="18.29" class="st0" width="4.57" height="4.57"/>
<rect x="9.15" y="13.71" class="st0" width="4.57" height="4.57"/>
<rect x="13.72" y="0" class="st0" width="4.57" height="4.57"/>
<rect x="13.72" y="4.57" class="st0" width="4.57" height="4.57"/>
<rect x="13.72" y="22.86" class="st0" width="4.57" height="4.57"/>
<rect x="13.72" y="27.43" class="st0" width="4.57" height="4.57"/>
<rect x="13.72" y="9.14" class="st1" width="4.57" height="4.57"/>
<rect x="18.28" y="13.71" class="st1" width="4.57" height="4.57"/>
<rect x="13.72" y="18.29" class="st1" width="4.57" height="4.57"/>
<rect x="9.15" y="13.71" class="st1" width="4.57" height="4.57"/>
<rect x="13.72" y="0" class="st2" width="4.57" height="4.57"/>
<rect x="13.72" y="4.57" class="st3" width="4.57" height="4.57"/>
<rect x="13.72" y="22.86" class="st3" width="4.57" height="4.57"/>
<rect x="13.72" y="27.43" class="st2" width="4.57" height="4.57"/>
<line class="st0" x1="18.29" y1="13.72" x2="18.29" y2="18.29"/>
<rect x="9.15" y="18.29" class="st4" width="4.57" height="4.57"/>
<rect x="18.28" y="18.29" class="st4" width="4.57" height="4.57"/>
<rect x="9.15" y="9.13" class="st4" width="4.57" height="4.57"/>
<rect x="18.29" y="9.14" class="st4" width="4.57" height="4.57"/>
<rect x="13.72" y="13.71" class="st0" width="4.57" height="4.57"/>
<rect x="13.72" y="13.71" class="st5" width="4.57" height="4.57"/>
<rect x="4.58" y="13.71" class="st2" width="4.57" height="4.57"/>
<rect x="22.87" y="13.72" class="st2" width="4.57" height="4.57"/>
<rect x="27.43" y="22.86" class="st0" width="4.57" height="4.57"/>
<rect x="27.43" y="22.86" class="st6" width="4.57" height="4.57"/>
<rect x="0" y="4.57" class="st0" width="4.57" height="4.57"/>
<rect x="0" y="4.57" class="st6" width="4.57" height="4.57"/>
</svg>
