<?xml version="1.0" encoding="utf-8"?>
<!-- Generator: Adobe Illustrator 23.0.6, SVG Export Plug-In . SVG Version: 6.00 Build 0)  -->
<svg version="1.1" id="Capa_1" xmlns="http://www.w3.org/2000/svg" xmlns:xlink="http://www.w3.org/1999/xlink" x="0px" y="0px"
	 viewBox="0 0 35 35" style="enable-background:new 0 0 35 35;" xml:space="preserve">
<style type="text/css">
	.st0{fill:#522EF2;}
</style>
<rect x="25" y="5" class="st0" width="5" height="5"/>
<rect x="20" y="30" class="st0" width="5" height="5"/>
<rect x="20" y="0" class="st0" width="5" height="5"/>
<rect x="10" y="30" class="st0" width="5" height="5"/>
<rect x="15" y="30" class="st0" width="5" height="5"/>
<rect x="30" y="10" transform="matrix(-1.836970e-16 1 -1 -1.836970e-16 45 -20)" class="st0" width="5" height="5"/>
<rect x="30" y="20" transform="matrix(-1.836970e-16 1 -1 -1.836970e-16 55 -10)" class="st0" width="5" height="5"/>
<rect x="25" y="25" transform="matrix(-1.836970e-16 1 -1 -1.836970e-16 55 9.130474e-13)" class="st0" width="5" height="5"/>
<rect x="15" y="0" class="st0" width="5" height="5"/>
<rect x="10" y="0" class="st0" width="5" height="5"/>
<rect x="5" y="5" class="st0" width="5" height="5"/>
<rect x="10" y="10" class="st0" width="5" height="5"/>
<rect y="0" class="st0" width="5" height="5"/>
<rect y="5" class="st0" width="5" height="5"/>
<rect y="10" class="st0" width="5" height="5"/>
<rect x="5" y="25" class="st0" width="5" height="5"/>
<rect x="5" y="10" class="st0" width="5" height="5"/>
<rect x="30" y="15" transform="matrix(-1.836970e-16 1 -1 -1.836970e-16 50 -15)" class="st0" width="5" height="5"/>
<rect x="25" y="5" class="st0" width="5" height="5"/>
<rect x="20" y="30" class="st0" width="5" height="5"/>
<rect x="20" y="0" class="st0" width="5" height="5"/>
<rect x="10" y="30" class="st0" width="5" height="5"/>
<rect x="15" y="30" class="st0" width="5" height="5"/>
<rect x="30" y="10" transform="matrix(-1.836970e-16 1 -1 -1.836970e-16 45 -20)" class="st0" width="5" height="5"/>
<rect x="30" y="20" transform="matrix(-1.836970e-16 1 -1 -1.836970e-16 55 -10)" class="st0" width="5" height="5"/>
<rect x="25" y="25" transform="matrix(-1.836970e-16 1 -1 -1.836970e-16 55 9.130474e-13)" class="st0" width="5" height="5"/>
<rect x="15" y="0" class="st0" width="5" height="5"/>
<rect x="10" y="0" class="st0" width="5" height="5"/>
<rect x="5" y="5" class="st0" width="5" height="5"/>
<rect x="10" y="10" class="st0" width="5" height="5"/>
<rect y="0" class="st0" width="5" height="5"/>
<rect y="5" class="st0" width="5" height="5"/>
<rect y="10" class="st0" width="5" height="5"/>
<rect x="5" y="25" class="st0" width="5" height="5"/>
<rect x="5" y="10" class="st0" width="5" height="5"/>
<rect x="30" y="15" transform="matrix(-1.836970e-16 1 -1 -1.836970e-16 50 -15)" class="st0" width="5" height="5"/>
</svg>
